<svg xmlns="http://www.w3.org/2000/svg" width="13" height="14.096" viewBox="0 0 13 14.096">
  <g id="calende" transform="translate(-4440.5 -609.404)">
    <path id="Vector" d="M0,0V1.22" transform="translate(4444 609.904)" fill="none" stroke="#534d4d" stroke-linecap="round" stroke-width="1"/>
    <path id="Vector-2" data-name="Vector" d="M0,0V1.22" transform="translate(4450 609.904)" fill="none" stroke="#534d4d" stroke-linecap="round" stroke-width="1"/>
    <path id="Vector-3" data-name="Vector" d="M0,0H11" transform="translate(4441.5 613.818)" fill="none" stroke="#534d4d" stroke-linecap="round" stroke-width="1"/>
    <path id="Vector-4" data-name="Vector" d="M12,3.378V9.122c0,2.027-1,3.378-3.333,3.378H3.333C1,12.5,0,11.149,0,9.122V3.378C0,1.351,1,0,3.333,0H8.667C11,0,12,1.351,12,3.378Z" transform="translate(4441 610.5)" fill="none" stroke="#534d4d" stroke-linecap="round" stroke-linejoin="bevel" stroke-width="1"/>
    <path id="Vector-5" data-name="Vector" d="M.495.5H.5" transform="translate(4449.275 616.775)" fill="none" stroke="#534d4d" stroke-linecap="round" stroke-width="1"/>
    <path id="Vector-6" data-name="Vector" d="M.495.5H.5" transform="translate(4449.275 619.025)" fill="none" stroke="#534d4d" stroke-linecap="round" stroke-width="1"/>
    <path id="Vector-7" data-name="Vector" d="M.495.5H.5" transform="translate(4446.501 616.775)" fill="none" stroke="#534d4d" stroke-linecap="round" stroke-width="1"/>
    <path id="Vector-8" data-name="Vector" d="M.495.5H.5" transform="translate(4446.501 619.025)" fill="none" stroke="#534d4d" stroke-linecap="round" stroke-width="1"/>
    <path id="Vector-9" data-name="Vector" d="M.495.5H.5" transform="translate(4443.726 616.775)" fill="none" stroke="#534d4d" stroke-linecap="round" stroke-width="1"/>
    <path id="Vector-10" data-name="Vector" d="M.495.5H.5" transform="translate(4443.726 619.025)" fill="none" stroke="#534d4d" stroke-linecap="round" stroke-width="1"/>
  </g>
</svg>
