<svg id="google" xmlns="http://www.w3.org/2000/svg" width="21.588" height="22.056" viewBox="0 0 21.588 22.056">
  <path id="Path_5" data-name="Path 5" d="M40.8,0a11.021,11.021,0,0,0-9.911,6.143l3.716,2.838A6.512,6.512,0,0,1,40.8,4.512a6.39,6.39,0,0,1,4.066,1.454l3.213-3.208A11,11,0,0,0,40.8,0Z" transform="translate(-29.759 0)" fill="#534d4d"/>
  <path id="Path_6" data-name="Path 6" d="M30.9,6.142l3.716,2.838A6.512,6.512,0,0,1,40.81,4.511a6.39,6.39,0,0,1,4.066,1.454l3.213-3.208A11,11,0,0,0,40.81,0" transform="translate(-29.767 0)" fill="#534d4d"/>
  <path id="Path_7" data-name="Path 7" d="M9.8,143.757c0-.1.007-.2.012-.3a6.574,6.574,0,0,1,.319-1.745l-3.716-2.838a11.009,11.009,0,0,0-1.124,4.583c0,.1-.009.2-.009.3s.006.2.008.3a11.018,11.018,0,0,0,1.122,4.579L10.13,145.8a6.554,6.554,0,0,1-.316-1.736C9.809,143.959,9.8,143.859,9.8,143.757Z" transform="translate(-5.284 -132.729)" fill="#534d4d"/>
  <g id="Group_4" data-name="Group 4" transform="translate(1.131 6.142)">
    <path id="Path_8" data-name="Path 8" d="M30.86,148.639l3.715-2.844a6.554,6.554,0,0,1-.316-1.736c0-.1-.012-.2-.012-.3s.007-.2.012-.3a6.574,6.574,0,0,1,.319-1.745l-3.716-2.838" transform="translate(-30.86 -138.872)" fill="#534d4d"/>
  </g>
  <path id="Path_9" data-name="Path 9" d="M44.47,299.113a6.832,6.832,0,0,1-3.668.964,6.533,6.533,0,0,1-6.195-4.469l-3.716,2.838a11.084,11.084,0,0,0,12.867,5.745A10.226,10.226,0,0,0,48,301.84Z" transform="translate(-29.759 -282.533)" fill="#534d4d"/>
  <path id="Path_10" data-name="Path 10" d="M30.9,359.768a11.084,11.084,0,0,0,12.867,5.744,10.225,10.225,0,0,0,4.239-2.35l-3.528-2.727a6.832,6.832,0,0,1-3.668.964,6.53,6.53,0,0,1-3.845-1.254" transform="translate(-29.767 -343.855)" fill="#534d4d"/>
  <path id="Path_11" data-name="Path 11" d="M267.472,201.32H257.284v4.246h5.82A5.335,5.335,0,0,1,260.849,209l3.528,2.727a10.125,10.125,0,0,0,2.349-3.329,12.4,12.4,0,0,0,1-5.018A10.031,10.031,0,0,0,267.472,201.32Z" transform="translate(-246.138 -192.415)" fill="#534d4d"/>
  <g id="Group_5" data-name="Group 5" transform="translate(11.146 8.905)">
    <path id="Path_12" data-name="Path 12" d="M417.636,211.722a10.2,10.2,0,0,0,2.356-3.341,12.367,12.367,0,0,0,.993-5.012,9.984,9.984,0,0,0-.254-2.049H420.1" transform="translate(-410.543 -201.32)" fill="#534d4d"/>
    <path id="Path_13" data-name="Path 13" d="M257.284,241.32V243.8h5.662" transform="translate(-257.284 -239.551)" fill="#534d4d"/>
  </g>
</svg>
