<svg xmlns="http://www.w3.org/2000/svg" width="28.292" height="24.337" viewBox="0 0 28.292 24.337">
  <g id="Group_1457" data-name="Group 1457" transform="translate(-1225.7 -1391.7)">
    <g id="Group_44" data-name="Group 44" transform="translate(1226 1392)">
      <path id="Path_115" data-name="Path 115" d="M1242.813,1415.737h-14.835a1.98,1.98,0,0,1-1.978-1.978v-19.78a1.98,1.98,0,0,1,1.978-1.978h14.835a1.98,1.98,0,0,1,1.978,1.978v5.438a.495.495,0,1,1-.989,0v-5.438a.99.99,0,0,0-.989-.989h-14.835a.99.99,0,0,0-.989.989v19.78a.99.99,0,0,0,.989.989h14.835a.99.99,0,0,0,.989-.989v-4.452a.495.495,0,1,1,.989,0v4.452A1.98,1.98,0,0,1,1242.813,1415.737Z" transform="translate(-1226 -1392)" fill="#534d4d" stroke="#534d4d" stroke-width="0.6"/>
    </g>
    <g id="Group_45" data-name="Group 45" transform="translate(1235.89 1402.879)">
      <path id="Path_116" data-name="Path 116" d="M1323.308,1480.989h-16.813a.495.495,0,0,1,0-.989h16.813a.495.495,0,0,1,0,.989Z" transform="translate(-1306 -1480)" fill="#534d4d" stroke="#534d4d" stroke-width="0.6"/>
    </g>
    <g id="Group_46" data-name="Group 46" transform="translate(1246.769 1396.945)">
      <path id="Path_117" data-name="Path 117" d="M1394.494,1444.857a.495.495,0,0,1-.35-.844l5.584-5.584-5.584-5.585a.494.494,0,0,1,.7-.7l5.934,5.934a.494.494,0,0,1,0,.7l-5.934,5.934A.493.493,0,0,1,1394.494,1444.857Z" transform="translate(-1394 -1432)" fill="#534d4d" stroke="#534d4d" stroke-width="0.6"/>
    </g>
  </g>
</svg>
