<svg xmlns="http://www.w3.org/2000/svg" width="21.758" height="21.758" viewBox="0 0 21.758 21.758">
  <g id="people" transform="translate(-620 -252)">
    <g id="people-2" data-name="people" transform="translate(620 252)">
      <g id="Group" transform="translate(13.898 1.813)">
        <path id="Vector" d="M2.421,4.678a.549.549,0,0,0-.172,0,2.343,2.343,0,1,1,.172,0Z" fill="none" stroke="#534d4d" stroke-linecap="round" stroke-linejoin="round" stroke-width="1.2"/>
        <path id="Vector-2" data-name="Vector" d="M.027,4.479A5.108,5.108,0,0,0,3.6,3.826a1.733,1.733,0,0,0,0-3.1A5.14,5.14,0,0,0,0,.082" transform="translate(1.46 6.799)" fill="none" stroke="#534d4d" stroke-linecap="round" stroke-linejoin="round" stroke-width="1.2"/>
      </g>
      <g id="Group-2" data-name="Group" transform="translate(1.815 1.813)">
        <path id="Vector-3" data-name="Vector" d="M2.257,4.678a.549.549,0,0,1,.172,0,2.344,2.344,0,1,0-.172,0Z" transform="translate(1.339)" fill="none" stroke="#534d4d" stroke-linecap="round" stroke-linejoin="round" stroke-width="1.2"/>
        <path id="Vector-4" data-name="Vector" d="M4.531,4.479A5.108,5.108,0,0,1,.959,3.826a1.733,1.733,0,0,1,0-3.1,5.14,5.14,0,0,1,3.6-.644" transform="translate(0 6.799)" fill="none" stroke="#534d4d" stroke-linecap="round" stroke-linejoin="round" stroke-width="1.2"/>
      </g>
      <g id="Group-3" data-name="Group" transform="translate(7.282 8.585)">
        <path id="Vector-5" data-name="Vector" d="M2.421,4.678a.549.549,0,0,0-.172,0,2.344,2.344,0,1,1,.172,0Z" transform="translate(1.176)" fill="none" stroke="#534d4d" stroke-linecap="round" stroke-linejoin="round" stroke-width="1.2"/>
        <path id="Vector-6" data-name="Vector" d="M.959.721a1.733,1.733,0,0,0,0,3.1,5.147,5.147,0,0,0,5.276,0,1.733,1.733,0,0,0,0-3.1A5.189,5.189,0,0,0,.959.721Z" transform="translate(0 6.813)" fill="none" stroke="#534d4d" stroke-linecap="round" stroke-linejoin="round" stroke-width="1.2"/>
      </g>
      <path id="Vector-7" data-name="Vector" d="M0,0H21.758V21.758H0Z" fill="none" opacity="0"/>
    </g>
  </g>
</svg>
