<svg id="send" xmlns="http://www.w3.org/2000/svg" width="12.914" height="12.919" viewBox="0 0 12.914 12.919">
  <path id="Vector" d="M9.79-.6a2.448,2.448,0,0,1,2.062.947,3.453,3.453,0,0,1,.191,3.126L10.172,9.087c-.889,2.672-2.038,3.233-2.845,3.233s-1.956-.561-2.845-3.233L4.02,7.7,2.633,7.237C-.038,6.349-.6,5.2-.6,4.4s.56-1.955,3.232-2.849L8.245-.323A4.93,4.93,0,0,1,9.79-.6ZM7.327,11.143c.445,0,1.133-.638,1.729-2.428L10.927,3.1A2.366,2.366,0,0,0,10.9,1.036,1.28,1.28,0,0,0,9.79.576,3.768,3.768,0,0,0,8.617.792L3,2.663C1.214,3.262.576,3.951.576,4.4S1.215,5.526,3,6.122l1.666.555a.588.588,0,0,1,.372.372L5.6,8.715C6.194,10.505,6.882,11.143,7.327,11.143Z" transform="translate(0.6 0.6)" fill="#fff"/>
  <path id="Vector-2" data-name="Vector" d="M-.012,2.949a.586.586,0,0,1-.415-.172.588.588,0,0,1,0-.832L1.938-.427a.588.588,0,0,1,.832,0,.588.588,0,0,1,0,.832L.4,2.776A.586.586,0,0,1-.012,2.949Z" transform="translate(5.222 5.189)" fill="#fff"/>
</svg>
