<svg xmlns="http://www.w3.org/2000/svg" width="16.963" height="14.257" viewBox="0 0 16.963 14.257">
  <path id="share" d="M5.156,23.175a.59.59,0,0,1-.191-.031.618.618,0,0,1-.426-.618c0-.093.636-9.061,9.63-9.766V9.536A.618.618,0,0,1,15.227,9.1l6.1,6.226a.618.618,0,0,1,0,.865l-6.1,6.226a.618.618,0,0,1-1.059-.432V18.826c-6,.229-8.465,4.015-8.49,4.061A.618.618,0,0,1,5.156,23.175ZM15.4,11.05v2.289a.618.618,0,0,1-.6.618A8.761,8.761,0,0,0,6.16,20.537a12.776,12.776,0,0,1,8.589-2.965h.028a.618.618,0,0,1,.618.618v2.289l4.633-4.713Z" transform="translate(-4.538 -8.918)" fill="#534d4d"/>
</svg>
